HIERARCHY
ROOT Hips
{
	OFFSET 0.00000 0.00000 0.00000
	CHANNELS 6 Xposition Yposition Zposition Zrotation Yrotation Xrotation 
	JOINT LHipJoint
	{
		OFFSET 0 0 0
		CHANNELS 3 Zrotation Yrotation Xrotation
		JOINT LeftHip
		{
			OFFSET 1.41496 -1.84582 0.78394
			CHANNELS 3 Zrotation Yrotation Xrotation
			JOINT LeftKnee
			{
				OFFSET 2.58040 -7.08960 0.00000
				CHANNELS 3 Zrotation Yrotation Xrotation
				JOINT LeftAnkle
				{
					OFFSET 2.64719 -7.27309 0.00000
					CHANNELS 3 Zrotation Yrotation Xrotation
					JOINT LeftToe
					{
						OFFSET 0.20718 -0.56921 2.20259
						CHANNELS 3 Zrotation Yrotation Xrotation
						End Site
						{
							OFFSET 0.00000 -0.00000 1.14243
						}
					}
				}
			}
		}
	}
	JOINT RHipJoint
	{
		OFFSET 0 0 0
		CHANNELS 3 Zrotation Yrotation Xrotation
		JOINT RightHip
		{
			OFFSET -1.40551 -1.84582 0.78394
			CHANNELS 3 Zrotation Yrotation Xrotation
			JOINT RightKnee
			{
				OFFSET -2.56572 -7.04926 0.00000
				CHANNELS 3 Zrotation Yrotation Xrotation
				JOINT RightAnkle
				{
					OFFSET -2.57974 -7.08778 0.00000
					CHANNELS 3 Zrotation Yrotation Xrotation
					JOINT RightToe
					{
						OFFSET -0.26704 -0.73369 2.20815
						CHANNELS 3 Zrotation Yrotation Xrotation
						End Site
						{
							OFFSET -0.00000 -0.00000 1.16246
						}
					}
				}
			}
		}
	}
	JOINT lowerback
	{
		OFFSET 0 0 0
		CHANNELS 3 Zrotation Yrotation Xrotation
		JOINT Chest
		{
			OFFSET -0.04690 2.05196 -0.07017
			CHANNELS 3 Zrotation Yrotation Xrotation
			JOINT Chest2
			{
				OFFSET 0.04085 2.05260 0.00800
				CHANNELS 3 Zrotation Yrotation Xrotation
				JOINT lowerneck
				{
					OFFSET 0 0 0
					CHANNELS 3 Zrotation Yrotation Xrotation
					JOINT Neck
					{
						OFFSET -0.03582 1.80995 0.19301
						CHANNELS 3 Zrotation Yrotation Xrotation
						JOINT Head
						{
							OFFSET 0.00952 1.80195 -0.36389
							CHANNELS 3 Zrotation Yrotation Xrotation
							End Site
							{
								OFFSET 0.00392 1.85062 -0.14494
							}
						}
					}
				}
				JOINT LeftCollar
				{
					OFFSET 0 0 0
					CHANNELS 3 Zrotation Yrotation Xrotation
					JOINT LeftShoulder
					{
						OFFSET 3.55224 1.39726 -0.13667
CHANNELS 3 Zrotation Xrotation Yrotation
						JOINT LeftElbow
						{
OFFSET 0 -5.145070 -0.000000
CHANNELS 3 Zrotation Xrotation Yrotation
							JOINT LeftWrist
							{
OFFSET 0 -3.506460 0.000000
CHANNELS 3 Zrotation Xrotation Yrotation
								JOINT lhand
								{
									OFFSET 0 0 0
CHANNELS 3 Zrotation Xrotation Yrotation
									JOINT LFingers
									{
OFFSET 0 -0.629970 0.000000
CHANNELS 3 Zrotation Xrotation Yrotation
										End Site
										{
OFFSET 0 -0.507900 0.000000
										}
									}
								}
								JOINT LThumb
								{
OFFSET 0 0.000000 0.000000
CHANNELS 3 Zrotation Xrotation Yrotation
									End Site
									{
OFFSET 0 -0.515650 0.515650
									}
								}
							}
						}
					}
				}
				JOINT RightCollar
				{
					OFFSET 0 0 0
					CHANNELS 3 Zrotation Yrotation Xrotation
					JOINT RightShoulder
					{
						OFFSET -3.06467 1.61290 -0.28813
CHANNELS 3 Zrotation Xrotation Yrotation
						JOINT RightElbow
						{
OFFSET 0 -5.232000 -0.000000
CHANNELS 3 Zrotation Xrotation Yrotation
							JOINT RightWrist
							{
OFFSET 0 -3.656410 0.000000
CHANNELS 3 Zrotation Xrotation Yrotation
								JOINT rhand
								{
									OFFSET 0 0 0
CHANNELS 3 Zrotation Xrotation Yrotation
									JOINT RFingers
									{
OFFSET 0 -0.656810 0.000000
CHANNELS 3 Zrotation Xrotation Yrotation
										End Site
										{
OFFSET 0 -0.529530 0.000000
										}
									}
								}
								JOINT RThumb
								{
OFFSET 0 0.000000 0.000000
CHANNELS 3 Zrotation Xrotation Yrotation
									End Site
									{
OFFSET 0 -0.537620 0.537620
									}
								}
							}
						}
					}
				}
			}
		}
	}
}
MOTION
Frames: 5
Frame Time: 0.008333333333333333
5.745661 23.375533 -6.262295 192.486200 -43.642393 -184.642467 0.000000 0.000000 0.000000 -10.708902 -14.658094 -64.631108 8.631369 16.561992 54.802325 -0.337511 -11.776476 10.596296 0.451621 -4.310892 -11.952966 0.000000 0.000000 0.000000 8.839991 4.623675 -53.411469 -6.993375 -15.324792 48.846575 0.412455 -11.317704 -3.786838 -1.160377 6.838503 -19.237767 4.677349 0.778596 28.253276 4.197356 1.311075 7.741102 1.604353 0.014312 -6.870681 -10.328219 -7.496550 -6.481078 5.827019 -10.080531 14.250467 2.720815 -5.108967 6.206471 0.000000 0.000000 0.000000 43.576938 34.152906 12.349364 35.950443 -45.478909 15.487166 24.700272 -16.674844 1.108407 0.000000 0.000000 0.000000 -7.125000 0.000000 0.000000 -1.456441 28.758493 -0.576240 0.000000 0.000000 0.000000 -57.983208 14.630195 7.776302 -52.109486 -53.804313 -27.869783 -25.772283 -1.955883 3.635596 0.000000 0.000000 0.000000 7.125000 0.000000 0.000000 0.698968 34.015234 0.188618
5.687144 23.280739 -6.426613 192.344409 -43.659155 -184.700070 0.000000 0.000000 0.000000 -10.681475 -14.724272 -63.755565 8.436749 16.430544 54.119775 -0.283606 -11.202909 10.643720 0.461394 -4.357083 -12.083375 0.000000 0.000000 0.000000 8.782044 4.600228 -52.847678 -6.857792 -15.210420 48.333384 0.418670 -11.418417 -3.264495 -1.149419 6.807272 -19.145643 4.580790 0.825043 27.995535 4.175471 1.339883 7.731051 1.622675 0.036930 -6.760791 -10.358037 -7.516153 -6.393642 5.800890 -10.120015 14.334625 2.715566 -5.135663 6.221657 0.000000 0.000000 0.000000 44.108620 34.911045 11.807981 36.027367 -45.531798 15.542043 24.700446 -16.350105 1.136644 0.000000 0.000000 0.000000 -7.125000 0.000000 0.000000 -1.456075 28.727436 -0.577171 0.000000 0.000000 0.000000 -58.628569 15.194475 7.974304 -52.941451 -54.112506 -28.541311 -25.662251 -2.190680 3.552340 0.000000 0.000000 0.000000 7.125000 0.000000 0.000000 0.786469 33.918994 0.213859
5.628040 23.185698 -6.590621 192.206015 -43.661526 -184.794117 0.000000 0.000000 0.000000 -10.680825 -14.771486 -62.815442 8.257449 16.302740 53.480524 -0.232109 -10.613282 10.702633 0.467091 -4.383539 -12.158192 0.000000 0.000000 0.000000 8.745840 4.582681 -52.213130 -6.716187 -15.086133 47.788907 0.421117 -11.519995 -2.727358 -1.135465 6.767054 -19.027206 4.488616 0.878871 27.754225 4.149819 1.379872 7.724552 1.631391 0.064150 -6.654052 -10.378529 -7.538288 -6.303304 5.777416 -10.165891 14.426875 2.709143 -5.165139 6.239128 0.000000 0.000000 0.000000 44.639066 35.655008 11.187502 36.166679 -45.627030 15.641671 24.683510 -15.983208 1.175907 0.000000 0.000000 0.000000 -7.125000 0.000000 0.000000 -1.468959 28.684427 -0.583785 0.000000 0.000000 0.000000 -59.238382 15.759558 8.173141 -53.828052 -54.418043 -29.262718 -25.548019 -2.415934 3.445333 0.000000 0.000000 0.000000 7.125000 0.000000 0.000000 0.876349 33.796657 0.241232
5.568935 23.090657 -6.754629 192.067621 -43.663896 -184.888164 0.000000 0.000000 0.000000 -10.680175 -14.818701 -61.875318 8.078148 16.174935 52.841274 -0.180613 -10.023655 10.761546 0.472787 -4.409994 -12.233009 0.000000 0.000000 0.000000 8.709635 4.565133 -51.578582 -6.574581 -14.961846 47.244430 0.423564 -11.621573 -2.190221 -1.121511 6.726836 -18.908768 4.396443 0.932699 27.512914 4.124166 1.419861 7.718053 1.640108 0.091370 -6.547313 -10.399020 -7.560424 -6.212966 5.753943 -10.211768 14.519125 2.702721 -5.194615 6.256599 0.000000 0.000000 0.000000 45.169513 36.398971 10.567023 36.305990 -45.722262 15.741299 24.666574 -15.616311 1.215169 0.000000 0.000000 0.000000 -7.125000 0.000000 0.000000 -1.481843 28.641418 -0.590398 0.000000 0.000000 0.000000 -59.848195 16.324642 8.371977 -54.714653 -54.723580 -29.984126 -25.433787 -2.641187 3.338326 0.000000 0.000000 0.000000 7.125000 0.000000 0.000000 0.966229 33.674320 0.268605
5.509038 22.993281 -6.919607 191.929888 -43.657804 -185.003366 0.000000 0.000000 0.000000 -10.697397 -14.853927 -60.905820 7.910086 16.051142 52.235564 -0.131276 -9.442357 10.852566 0.474098 -4.416132 -12.250376 0.000000 0.000000 0.000000 8.683348 4.553249 -50.905162 -6.432205 -14.832975 46.689838 0.423344 -11.728396 -1.638892 -1.106455 6.683003 -18.779753 4.306605 0.991133 27.282424 4.095010 1.467056 7.712656 1.642015 0.121719 -6.444165 -10.413738 -7.584278 -6.120996 5.733973 -10.262140 14.616928 2.696077 -5.225941 6.275768 0.000000 0.000000 0.000000 45.691079 37.127707 9.910404 36.491425 -45.847508 15.874357 24.634521 -15.242450 1.267257 0.000000 0.000000 0.000000 -7.125000 0.000000 0.000000 -1.506362 28.584481 -0.602257 0.000000 0.000000 0.000000 -60.426121 16.884458 8.563166 -55.634551 -55.022903 -30.736935 -25.314067 -2.848767 3.215717 0.000000 0.000000 0.000000 7.125000 0.000000 0.000000 1.059788 33.534992 0.298358
